Coordinates
version=1
nRows=54
nColumns=12
inDegrees=yes

Units are S.I. units (second, meters, Newtons, ...)
Angles are in degrees

endheader
time	SC_y	SC_z	SC_x	AC_y	AC_z	AC_x	GH_y	GH_z	GH_yy	EL_x	PS_y
       0.0              -44.14          35.13          79.23          37.79          7.481         -5.759          43.75          54.42         -79.52          76.08          45.01
   0.02805              -44.14          35.12          79.23          37.79          7.479         -5.757          43.72          54.43         -79.52          76.08          45.03
   0.05609              -44.14          35.12          79.23          37.79          7.478         -5.754           43.7          54.43         -79.53          76.08          45.04
   0.08414              -44.14          35.12          79.23          37.79          7.476         -5.752          43.67          54.44         -79.54          76.09          45.06
    0.1122              -44.14          35.12          79.22          37.79          7.474         -5.749          43.64          54.44         -79.54          76.09          45.08
    0.1402              -44.14          35.12          79.22          37.79          7.472         -5.746          43.61          54.45         -79.55           76.1           45.1
    0.1683              -44.15          35.12          79.22          37.79           7.47         -5.743          43.58          54.45         -79.56           76.1          45.12
    0.1963              -44.15          35.11          79.22           37.8          7.468          -5.74          43.54          54.46         -79.57          76.11          45.14
    0.2244              -44.15          35.11          79.22           37.8          7.466         -5.736          43.51          54.46         -79.57          76.12          45.16
    0.2524              -44.15          35.11          79.22           37.8          7.463         -5.732          43.47          54.47         -79.58          76.12          45.19
    0.2805              -44.15          35.11          79.22           37.8           7.46         -5.728          43.43          54.48         -79.59          76.13          45.21
    0.3085              -44.15          35.11          79.22           37.8          7.458         -5.724          43.38          54.48          -79.6          76.14          45.24
    0.3366              -44.15           35.1          79.21           37.8          7.454         -5.719          43.33          54.49         -79.62          76.14          45.27
    0.3646              -44.15           35.1          79.21           37.8          7.451         -5.714          43.28           54.5         -79.63          76.15          45.31
    0.3927              -44.15           35.1          79.21           37.8          7.447         -5.708          43.22          54.51         -79.64          76.16          45.34
    0.4207              -44.15          35.09          79.21           37.8          7.443         -5.702          43.16          54.52         -79.66          76.17          45.38
    0.4487              -44.15          35.09          79.21           37.8          7.439         -5.696          43.09          54.53         -79.67          76.18          45.42
    0.4768              -44.16          35.09           79.2           37.8          7.434         -5.688          43.01          54.54         -79.69           76.2          45.47
    0.5048              -44.16          35.08           79.2           37.8          7.429         -5.681          42.93          54.56         -79.71          76.21          45.52
    0.5329              -44.16          35.08           79.2           37.8          7.423         -5.672          42.84          54.57         -79.73          76.23          45.58
    0.5609              -44.16          35.07          79.19           37.8          7.417         -5.663          42.74          54.59         -79.75          76.24          45.64
     0.589              -44.16          35.07          79.19           37.8           7.41         -5.652          42.64           54.6         -79.78          76.26          45.71
     0.617              -44.16          35.06          79.19           37.8          7.403         -5.641          42.52          54.62         -79.81          76.28          45.78
    0.6451              -44.17          35.05          79.18           37.8          7.395         -5.628          42.39          54.65         -79.84           76.3          45.86
    0.6731              -44.17          35.05          79.18          37.81          7.385         -5.614          42.24          54.67         -79.87          76.32          45.95
    0.7012              -44.17          35.04          79.17          37.81          7.375         -5.599          42.08           54.7         -79.91          76.35          46.05
    0.7292              -44.18          35.03          79.16          37.81          7.363         -5.581           41.9          54.73         -79.95          76.38          46.17
    0.7573              -44.18          35.02          79.16          37.81           7.35         -5.561          41.69          54.76          -80.0          76.42           46.3
    0.7853              -44.18          35.01          79.15          37.81          7.335         -5.539          41.46           54.8         -80.06          76.45          46.44
    0.8134              -44.19          34.99          79.14          37.81          7.319         -5.514          41.19          54.84         -80.12           76.5          46.61
    0.8414              -44.19          34.98          79.13          37.82            7.3         -5.485          40.89          54.89         -80.19          76.55           46.8
    0.8695               -44.2          34.96          79.12          37.82          7.278         -5.452          40.55          54.95         -80.27           76.6          47.01
    0.8975              -44.21          34.94           79.1          37.82          7.252         -5.413          40.15          55.01         -80.36          76.67          47.26
    0.9255              -44.21          34.91          79.09          37.83          7.223         -5.369          39.68          55.09         -80.47          76.75          47.55
    0.9536              -44.22          34.88          79.07          37.83          7.188         -5.317          39.14          55.18          -80.6          76.84          47.89
    0.9816              -44.24          34.85          79.05          37.84          7.148         -5.255           38.5          55.28         -80.75          76.94          48.29
      1.01              -44.25          34.81          79.02          37.84          7.099         -5.182          37.74           55.4         -80.93          77.07          48.76
     1.038              -44.27          34.76          78.99          37.85          7.042         -5.095          36.83          55.55         -81.14          77.22          49.33
     1.066              -44.28          34.71          78.95          37.86          6.972         -4.989          35.73          55.73          -81.4           77.4          50.02
     1.094              -44.31          34.64           78.9          37.87          6.886          -4.86          34.38          55.95         -81.72          77.62          50.86
     1.122              -44.34          34.55          78.85          37.88           6.78           -4.7          32.72          56.22         -82.11          77.89           51.9
      1.15              -44.38          34.44          78.77           37.9          6.649         -4.501          30.65          56.56          -82.6          78.23           53.2
     1.178              -44.42           34.3          78.68          37.92          6.483          -4.25          28.04          56.99         -83.21          78.67          54.83
     1.206              -44.48          34.13          78.57          37.95          6.272         -3.931          24.72          57.53         -83.99          79.21           56.9
     1.234              -44.56          33.91          78.42          37.98          6.002         -3.524          20.48          58.23         -84.99          79.91          59.55
     1.262              -44.65          33.62          78.23          38.03          5.656           -3.0          15.03          59.12         -86.27          80.81          62.96
      1.29              -44.78          33.26          77.99          38.08          5.214         -2.331          8.067          60.25         -87.91          81.96          67.31
     1.318              -44.93           32.8          77.69          38.16          4.658         -1.491        -0.6857          61.68         -89.96           83.4          72.78
     1.346              -45.12          32.25          77.32          38.24           3.98        -0.4661         -11.35          63.43         -92.47          85.16          79.44
     1.374              -45.34           31.6          76.89          38.34          3.195         0.7216         -23.71          65.45         -95.38           87.2          87.17
     1.402              -45.58           30.9          76.42          38.45          2.344          2.008          -37.1          67.63         -98.53           89.4          95.53
      1.43              -45.82           30.2          75.96          38.56          1.494          3.293         -50.49          69.82         -101.7          91.61          103.9
     1.458              -46.04          29.55          75.53          38.66         0.7081          4.481         -62.85          71.84         -104.6          93.65          111.6
     1.486              -46.23           29.0          75.16          38.75        0.03046          5.506         -73.52          73.58         -107.1          95.41          118.3
